<svg width="24" height="24" viewBox="0 0 24 24" fill="none" xmlns="http://www.w3.org/2000/svg">
<path d="M5.41001 21.7499C4.29001 21.7499 3.58001 21.3699 3.13001 20.9199C2.25001 20.0399 1.63001 18.1699 3.61001 14.1999L4.48001 12.4699C4.59001 12.2399 4.59001 11.7599 4.48001 11.5299L3.61001 9.7999C1.62001 5.8299 2.25001 3.9499 3.13001 3.0799C4.00001 2.1999 5.88001 1.5699 9.84001 3.5599L18.4 7.8399C20.53 8.8999 21.7 10.3799 21.7 11.9999C21.7 13.6199 20.53 15.0999 18.41 16.1599L9.85001 20.4399C7.91001 21.4099 6.47001 21.7499 5.41001 21.7499ZM5.41001 3.7499C4.87001 3.7499 4.45001 3.8799 4.19001 4.1399C3.46001 4.8599 3.75001 6.7299 4.95001 9.1199L5.82001 10.8599C6.14001 11.5099 6.14001 12.4899 5.82001 13.1399L4.95001 14.8699C3.75001 17.2699 3.46001 19.1299 4.19001 19.8499C4.91001 20.5799 6.78001 20.2899 9.18001 19.0899L17.74 14.8099C19.31 14.0299 20.2 12.9999 20.2 11.9899C20.2 10.9799 19.3 9.9499 17.73 9.1699L9.17001 4.8999C7.65001 4.1399 6.34001 3.7499 5.41001 3.7499Z" fill="#292D32"/>
<path d="M10.84 12.75H5.44C5.03 12.75 4.69 12.41 4.69 12C4.69 11.59 5.03 11.25 5.44 11.25H10.84C11.25 11.25 11.59 11.59 11.59 12C11.59 12.41 11.25 12.75 10.84 12.75Z" fill="#292D32"/>
</svg>
