<svg width="16" height="16" viewBox="0 0 16 16" fill="none" xmlns="http://www.w3.org/2000/svg">
<path d="M3.625 0.5C2.7962 0.5 2.00134 0.82924 1.41529 1.41529C0.82924 2.00134 0.5 2.7962 0.5 3.625V12.375C0.5 13.2038 0.82924 13.9987 1.41529 14.5847C2.00134 15.1708 2.7962 15.5 3.625 15.5H12.375C13.2038 15.5 13.9987 15.1708 14.5847 14.5847C15.1708 13.9987 15.5 13.2038 15.5 12.375V3.625C15.5 2.7962 15.1708 2.00134 14.5847 1.41529C13.9987 0.82924 13.2038 0.5 12.375 0.5H3.625ZM11.5675 6.5675L7.1925 10.9425C7.13444 11.0007 7.06547 11.0469 6.98954 11.0784C6.91361 11.1099 6.83221 11.1261 6.75 11.1261C6.66779 11.1261 6.58639 11.1099 6.51046 11.0784C6.43453 11.0469 6.36556 11.0007 6.3075 10.9425L4.4325 9.0675C4.37439 9.00939 4.32829 8.9404 4.29685 8.86448C4.2654 8.78856 4.24921 8.70718 4.24921 8.625C4.24921 8.54282 4.2654 8.46144 4.29685 8.38552C4.32829 8.3096 4.37439 8.24061 4.4325 8.1825C4.54986 8.06514 4.70903 7.99921 4.875 7.99921C4.95718 7.99921 5.03856 8.0154 5.11448 8.04685C5.1904 8.07829 5.25939 8.12439 5.3175 8.1825L6.75 9.61625L10.6825 5.6825C10.7999 5.56514 10.959 5.49921 11.125 5.49921C11.291 5.49921 11.4501 5.56514 11.5675 5.6825C11.6849 5.79986 11.7508 5.95903 11.7508 6.125C11.7508 6.29097 11.6849 6.45014 11.5675 6.5675Z" fill="black"/>
</svg>
